<svg xmlns="http://www.w3.org/2000/svg"
     xmlns:xlink="http://www.w3.org/1999/xlink">
    
    <defs>  
        <polygon points="0,0 50,7 50,30 0,38 0,34 40,25 40,13 0,4" 
          id="polygon"
          style="fill:#E0E0E0;" />
              
        <marker id="markerArrow"
                viewBox="0 0 10 10" 
                refX="1" refY="5"
                markerWidth="4" 
                markerHeight="4"
                orient="auto"
                stroke="white" fill="white">
            <path d="M 0 0 L 10 5 L 0 10 z" />
        </marker>
        
        <linearGradient y2="1" x2="1" id="gradMetal" spreadMethod="reflect"  gradientTransform="rotate(90)">
            <stop stop-color="#D0D0D0" offset="0"/>
            <stop stop-color="#707070" offset="0.5"/>
            <stop stop-color="#D0D0D0" offset="1"/>
        </linearGradient>
        
        <linearGradient y2="0.5067" x2="0.505" id="gradPort" x1="0.4817" y1="0.4833">
            <stop stop-color="#383838" offset="0"/>
            <stop stop-color="#888888" offset="1" stop-opacity="1"/>
        </linearGradient>
        
        <linearGradient y2="0.95" x2="0.5" id="gradBlack" spreadMethod="reflect" x1="0.5" y1="0.05">
            <stop stop-color="#383838 " offset="0"/>
            <stop stop-color="#909090" offset="0.5"/>
            <stop stop-color="#383838 " offset="1"/>
        </linearGradient>
        
        <!-- PORTS -->       
        <g id="twoverticalports">
            <rect  x = "0" y = "0"  width = "25" height = "25" style="fill:#282828"/>
            <rect  x = "3.25" y = "3.25"  width = "18.5" height = "18.5" style="fill:url(#gradPort)"/>
            <rect  x = "6.25" y = "6.25"  width = "12.5" height = "12.5" style="fill:#101010"/>
            <rect  x = "0" y = "26"  width = "25" height = "25" style="fill:#282828"/> 
            <rect  x = "3.25" y = "29.25"  width = "18.5" height = "18.5" style="fill:url(#gradPort)"/>
            <rect  x = "6.25" y = "32.25"  width = "12.5" height = "12.5" style="fill:#101010"/>
        </g>
        <!-- SERIAL DEBUG PORT-->
        <g id="serialdebugport">
            <rect  x = "0" y = "0" rx="3" ry="3" width = "25" height = "25" style="fill:#282828"/>
            <rect  x = "8" y = "8" rx="2" ry="2" width = "9.75" height = "9.75" style="fill:#FFCC66"/>
        </g>
    </defs>

    <!-- BLACK BIG BOARD -->
    <rect x = "25" y = "25" rx = "55" ry = "55" width = "825" height = "500" fill = "#101010"/>
    <rect x = "775" y = "125" width = "125" height = "300" fill = "#101010"/>
    <circle cx="800" cy="125" r="100"
            style="fill:#101010"/>
    <circle cx="800" cy="425" r="100"
            style="fill:#101010"/>
    
    <!-- BLACK SMALL BOARD -->
    <rect x = "225" y = "150" width = "525" height = "250" fill = "#282828"/>
    
    <!-- RECTANGLE LEFT BLUE text:gpio -->
    <rect x = "250" y = "250" width = "125" height = "50" fill = "#FFFFFF "/>
    <text x="277" y="282" font-family="Verdana" style="fill: #000000; stroke: none; font-size: 32px;">
        gpio
    </text>
    
    <!-- RECTANGLE LEFT BLUE text:bean -->
    <rect x = "425" y = "250" width = "125" height = "50" fill = "#FFFFFF "/>
    <text x="450" y="282" font-family="Verdana" style="fill: #000000; stroke: none; font-size: 32px;">
        bean
    </text>
    
    <!-- RECTANGLE LEFT BLUE text:mqtt -->
    <rect x = "600" y = "250" width = "125" height = "50" fill = "#FFFFFF "/>
    <text x="625" y="282" font-family="Verdana" style="fill: #000000; stroke: none; font-size: 32px;">
        mqtt
    </text>
    
    <!-- CIRCLE LEFT TOP -->
    <circle cx="165" cy="60" r="20"
            style="stroke:#FFCC66;
                   stroke-width: 6;
                   fill:#FFFFCC"/>
    
    <!-- CIRCLE RIGHT TOP -->
    <circle cx="845" cy="80" r="20"
            style="stroke:#FFCC66;
                   stroke-width: 6;
                   fill:#FFFFCC"/>
    
    <!-- CIRCLE LEFT BOTTOM -->
    <circle cx="165" cy="490" r="20"
            style="stroke:#FFCC66;
                   stroke-width: 6;
                   fill:#FFFFCC"/>
    
    <!-- CIRCLE RIGHT BOTTOM -->
    <circle cx="845" cy="470" r="20"
            style="stroke:#FFCC66;
                   stroke-width: 6;
                   fill:#FFFFCC"/>

    
        
    <!--TOP 46 PORTS-->
    <rect x = "205" y = "35"  width = "597" height = "51" fill = "#383838"/>
    <use xlink:href="#twoverticalports" x="205" y="35"/>
    <use xlink:href="#twoverticalports" x="231" y="35"/>
    <use xlink:href="#twoverticalports" x="257" y="35"/>
    <use xlink:href="#twoverticalports" x="283" y="35"/>
    <use xlink:href="#twoverticalports" x="309" y="35"/>
    <use xlink:href="#twoverticalports" x="335" y="35"/>
    <use xlink:href="#twoverticalports" x="361" y="35"/>
    <use xlink:href="#twoverticalports" x="387" y="35"/>
    <use xlink:href="#twoverticalports" x="413" y="35"/>
    <use xlink:href="#twoverticalports" x="439" y="35"/>
    <use xlink:href="#twoverticalports" x="465" y="35"/>
    <use xlink:href="#twoverticalports" x="491" y="35"/>
    <use xlink:href="#twoverticalports" x="517" y="35"/>
    <use xlink:href="#twoverticalports" x="543" y="35"/>
    <use xlink:href="#twoverticalports" x="569" y="35"/>
    <use xlink:href="#twoverticalports" x="595" y="35"/>
    <use xlink:href="#twoverticalports" x="621" y="35"/>
    <use xlink:href="#twoverticalports" x="647" y="35"/>
    <use xlink:href="#twoverticalports" x="673" y="35"/>
    <use xlink:href="#twoverticalports" x="699" y="35"/>
    <use xlink:href="#twoverticalports" x="725" y="35"/>
    <use xlink:href="#twoverticalports" x="751" y="35"/>
    <use xlink:href="#twoverticalports" x="777" y="35"/>
    <!--BOT 46 PORTS-->
    <rect x = "205" y = "465"  width = "597" height = "51" fill = "#383838"/>
    <use xlink:href="#twoverticalports" x="205" y="465"/>
    <use xlink:href="#twoverticalports" x="231" y="465"/>
    <use xlink:href="#twoverticalports" x="257" y="465"/>
    <use xlink:href="#twoverticalports" x="283" y="465"/>
    <use xlink:href="#twoverticalports" x="309" y="465"/>
    <use xlink:href="#twoverticalports" x="335" y="465"/>
    <use xlink:href="#twoverticalports" x="361" y="465"/>
    <use xlink:href="#twoverticalports" x="387" y="465"/>
    <use xlink:href="#twoverticalports" x="413" y="465"/>
    <use xlink:href="#twoverticalports" x="439" y="465"/>
    <use xlink:href="#twoverticalports" x="465" y="465"/>
    <use xlink:href="#twoverticalports" x="491" y="465"/>
    <use xlink:href="#twoverticalports" x="517" y="465"/>
    <use xlink:href="#twoverticalports" x="543" y="465"/>
    <use xlink:href="#twoverticalports" x="569" y="465"/>
    <use xlink:href="#twoverticalports" x="595" y="465"/>
    <use xlink:href="#twoverticalports" x="621" y="465"/>
    <use xlink:href="#twoverticalports" x="647" y="465"/>
    <use xlink:href="#twoverticalports" x="673" y="465"/>
    <use xlink:href="#twoverticalports" x="699" y="465"/>
    <use xlink:href="#twoverticalports" x="725" y="465"/>
    <use xlink:href="#twoverticalports" x="751" y="465"/>
    <use xlink:href="#twoverticalports" x="777" y="465"/>
    <!--6 SERIAL DEBUG PORTS-->
    <use xlink:href="#serialdebugport" x="439" y="439"/>
    <use xlink:href="#serialdebugport" x="465" y="439"/>
    <use xlink:href="#serialdebugport" x="491" y="439"/>
    <use xlink:href="#serialdebugport" x="517" y="439"/>
    <use xlink:href="#serialdebugport" x="543" y="439"/>
    <use xlink:href="#serialdebugport" x="569" y="439"/>
    
    <!--NUMBERS 1 2 45 46-->
        <!-- 1 TOP -->
        <text x="192" y="80" font-family="Verdana" style="fill: #FFFFFF; stroke: none; font-size: 12px;">
            1
        </text>
        <!-- 1 BOT -->
        <text x="192" y="510" font-family="Verdana" style="fill: #FFFFFF; stroke: none; font-size: 12px;">
            1
        </text>
        <!-- 2 TOP -->
        <text x="192" y="52" font-family="Verdana" style="fill: #FFFFFF; stroke: none; font-size: 12px;">
            2
        </text>
        <!-- 2 BOT -->
        <text x="192" y="482" font-family="Verdana" style="fill: #FFFFFF; stroke: none; font-size: 12px;">
            2
        </text>
        <!-- 45 TOP -->
        <text x="805" y="80" font-family="Verdana" style="fill: #FFFFFF; stroke: none; font-size: 12px;">
            45
        </text>
        <!-- 45 BOT -->
        <text x="805" y="510" font-family="Verdana" style="fill: #FFFFFF; stroke: none; font-size: 12px;">
            45
        </text>
        <!-- 46 TOP -->
        <text x="805" y="52" font-family="Verdana" style="fill: #FFFFFF; stroke: none; font-size: 12px;">
            46
        </text>
        <!-- 46 BOT -->
        <text x="805" y="482" font-family="Verdana" style="fill: #FFFFFF; stroke: none; font-size: 12px;">
            46
        </text>
    <!-- END OF NUMBERS 1 2 45 46-->
    
    <!-- P8 -->
    <text x="204" y="107" font-family="Verdana" style="fill: #585858; stroke: none; font-size: 24px;">
        P8
    </text>
        
    <!-- P9 -->
    <text x="204" y="460" font-family="Verdana" style="fill: #585858; stroke: none; font-size: 24px;">
        P9
    </text>
    
    <!--LEFT METAL BOX -->
    <rect x="4" y="175" rx="4" ry="4" width="191" height="150"
          style="fill:url(#gradMetal)"/>
    
    <!--ETHERNET METAL BOX -->
    <rect x = "775" y = "300" rx="2" ry="2" width = "125" height = "125" style="fill:url(#gradMetal)"/>
    <use xlink:href="#polygon" x="840" y="315"/>
    <use xlink:href="#polygon" x="840" y="370"/>
    
    
    <!--BLACK CONNECTOR BOX with GRADIENT-->
    <rect x="25" y="380"  width="100" height="80"
          style="fill:url(#gradBlack)"/>
    <rect x="5" y="380"  width="7" height="80"
          fill="#282828"/>
    <rect x="19" y="380"  width="7" height="80"
          fill="#282828"/>
    <rect x="12" y="380"  width="7" height="11"
          fill="#000000"/>
    <rect x="12" y="449"  width="7" height="11"
          fill="#000000"/>
    <rect x="12" y="391"  width="7" height="58"
          fill="#101010"/>
    
    <!-- LINES -->
    <polyline points="292,80 292,238"
              fill="none" stroke="white" 
              stroke-width="4"
              stroke-dasharray="5 5"
              marker-end="url(#markerArrow)" />
    
    <polyline points="375,275 410,275"
              fill="none" stroke="white" 
              stroke-width="4"
              marker-end="url(#markerArrow)" />
    
    <polyline points="550,275 585,275"
              fill="none" stroke="white" 
              stroke-width="4"
              marker-end="url(#markerArrow)" />
    
    <polyline points="725,275 757,275 757,400 762,400"
              fill="none" stroke="white" 
              stroke-width="4"
              stroke-dasharray="5 5"
              marker-end="url(#markerArrow)" />
    
</svg>